PathFileType	4	(X/Y/Z)	C:/Users/beibeiliu/ov580/test_trc\sequence.11_training_dense_left.trc
DataRate	CameraRate	NumFrames	NumMarkers	Units	OrigDataRate	OrigDataStartFrame	OrigNumFrames
120	120	22	19	mm	120	25	124
Frame#	Time	ThumbCMC			ThumbMCP			ThumbIP			ThumbTip			IndexMCP			IndexPIP			IndexTip			MiddleMCP			MiddlePIP			MiddleTip			RingMCP			RingPIP			RingTip			PinkyMCP			PinkyPIP			PinkyTip			BackHand1			BackHand2			BackHand3	
		X0	Y0	Z0	X1	Y1	Z1	X2	Y2	Z2	X3	Y3	Z3	X4	Y4	Z4	X5	Y5	Z5	X6	Y6	Z6	X7	Y7	Z7	X8	Y8	Z8	X9	Y9	Z9	X10	Y10	Z10	X11	Y11	Z11	X12	Y12	Z12	X13	Y13	Z13	X14	Y14	Z14	X15	Y15	Z15	X16	Y16	Z16	X17	Y17	Z17	X18	Y18	Z18	
24	0.2	-129.139	20.967	142.351	-102.528	-2.39193	130.471	-92.1839	-16.9788	115.129	-88.5179	-34.1875	93.3585	-122.96	16.5573	68.8118	-105.074	1.87998	52.9449	-83.3628	-19.8612	50.7921	-134.761	-3.19958	62.4079	-111.751	-24.3787	53.2999	-89.8779	-45.671	77.1889	-150.27	-21.8128	63.3284	-127.961	-37.5326	51.6098	-104.49	-54.5056	60.8485	-167.526	-35.7646	73.8178	-162.446	-49.7573	59.6363	-150.856	-61.6765	39.2665	-179.373	2.4047	105.234	-192.934	3.1016	130.675	-168.785	25.0209	122.764	
25	0.208333	-149.128	24.3611	138.526	-113.815	15.815	130.925	-93.3464	3.59803	111.641	-87.5704	-15.0282	94.8589	-136.732	11.6716	62.8888	-111.285	2.71334	50.1266	-86.0932	-10.4054	52.6382	-139.324	-7.36884	59.448	-108.576	-17.8897	55.2898	-86.3009	-27.5305	81.5996	-148.704	-29.159	64.1964	-118.937	-40.0716	56.5122	-90.958	-45.0593	71.4748	-159.745	-44.8624	76.9814	-147.016	-59.2957	62.739	-130.908	-71.4059	48.2162	-187.963	-14.8688	106.592	-198.839	-6.40108	128.365	-182.328	16.9772	116.916	
26	0.216667	-169.289	31.8233	130.275	-135.118	32.861	121.933	-115.177	25.6571	105.087	-104.024	7.70675	91.9669	-155.908	16.7866	61.0711	-130.772	9.08639	45.5735	-102.995	6.97261	46.9538	-148.174	-10.0643	58.2916	-118.709	-6.03679	53.3513	-92.9086	-2.1088	75.5859	-148.791	-25.4722	63.719	-118.414	-26.5498	56.9207	-90.3073	-17.5613	69.763	-153.931	-48.9332	82.8205	-133.726	-54.4059	66.861	-116.24	-64.3703	54.2486	-188.278	-27.0396	102.828	-206.661	-24.1086	131.108	-197.538	7.90635	111.746	
27	0.225	-195.943	27.1922	122.411	-167.346	45.826	113.544	-143.502	47.0812	91.6313	-124.567	33.2529	79.3876	-176.591	8.33188	55.9809	-151.623	16.1458	35.4368	-123.473	18.9469	37.4499	-160.736	-6.49798	52.7739	-130.374	0.721132	48.0543	-109.722	23.1679	70.0995	-153.89	-27.9522	64.6123	-123.76	-17.2223	54.6811	-102.529	-1.09	61.7295	-150.257	-46.4757	84.5924	-132.738	-45.6563	71.4505	-108.55	-48.2768	57.4834	-193.047	-29.9486	103.839	-206.823	-33.3256	131.47	-210.541	-5.90871	105.957	
28	0.233333	-216.75	16.0151	115.925	-193.662	33.5642	106.303	-172.794	39.8492	85.5833	-152.887	32.4227	73.2367	-194.006	-8.1552	50.441	-173.939	-0.231381	32.397	-144.703	16.5788	27.9943	-177.854	-18.848	53.9525	-149.501	-1.06963	41.9128	-132.961	19.9441	58.4465	-161.352	-33.0995	62.338	-139.13	-17.9935	48.5375	-122.192	4.26235	50.9837	-154.859	-47.2066	84.0163	-132.589	-47.0875	69.6871	-112.374	-45.7754	54.057	-194.134	-47.2703	104.538	-210.773	-45.7399	135.536	-223.214	-25.8957	109.352	
29	0.241667	-230.487	-3.73111	120.179	-209.612	14.8844	100.874	-194.168	26.4996	78.9685	-171.68	19.534	64.6629	-208.987	-31.6373	54.325	-193.443	-20.7953	30.0292	-171.351	0.409805	20.6024	-186.649	-40.2691	53.8968	-166.677	-18.6898	39.8472	-154.031	13.3217	53.1781	-173.313	-47.8563	63.9395	-153.967	-32.3253	47.3965	-137.628	-7.78345	45.3509	-162.794	-57.0136	84.3316	-142.602	-56.8815	66.5597	-125.605	-52.3033	48.6019	-203.392	-59.3366	112.152	-212.194	-58.8083	138.53	-231.797	-44.9353	114.468	
30	0.25	-238.881	-21.5032	119.036	-224.746	1.92451	96.5488	-209.079	6.19007	78.2987	-188.483	-0.216261	60.026	-226.587	-47.7574	51.1893	-210.784	-40.8298	32.0688	-188.748	-17.91	18.4711	-202.318	-55.8206	57.2899	-183.397	-34.3343	37.627	-171.862	-4.50891	47.048	-185.774	-63.4186	62.526	-167.062	-46.4587	44.4612	-160.659	-18.116	37.8176	-171.257	-69.9671	83.143	-155.931	-68.3386	66.7594	-138.962	-64.3074	41.8429	-206.57	-76.3729	113.514	-215.891	-71.9511	143.979	-238.273	-61.539	118.62	
31	0.258333	-250.412	-26.4396	121.778	-237.051	-3.66858	95.9538	-225.205	-1.74794	74.5399	-208.188	-5.24196	52.2095	-239.884	-58.4739	53.4606	-231.389	-48.9909	29.9738	-212.664	-28.7821	14.8465	-218.822	-62.9452	51.9792	-203.404	-42.0728	34.1603	-192.084	-9.65574	39.0511	-199.218	-72.2853	64.5144	-187.667	-59.4176	42.3033	-177.329	-30.3203	30.9041	-183.646	-77.0046	84.3789	-168.188	-77.2687	61.3399	-157.578	-74.2249	41.3276	-218.267	-81.2459	115.129	-225.268	-74.6151	145.388	-251.071	-64.3074	119.439	
32	0.266667	-258.459	-25.8898	120.94	-246.636	-6.20656	96.495	-236.554	-0.680549	70.4555	-219.817	-10.0925	51.6446	-255.831	-60.2514	59.285	-243.03	-54.1134	30.5312	-224.862	-35.763	14.7061	-230.616	-67.4691	56.3686	-216.815	-50.1692	31.9996	-206.008	-16.6004	34.6521	-214.697	-75.2425	63.3423	-200.43	-65.6106	40.097	-190.894	-38.8564	26.6763	-192.942	-79.1819	81.7148	-184.498	-79.1115	58.2232	-170.969	-76.6097	34.3246	-225.974	-81.6398	115.204	-231.969	-73.2876	146.155	-253.702	-65.7696	124.002	
33	0.275	-266.888	-20.2881	122.074	-253.691	-2.20625	94.2245	-241.873	0.00829533	66.0236	-227.535	-7.48691	51.5337	-259.203	-60.1672	60.6267	-249.664	-55.8754	31.9998	-233.652	-36.5689	14.5716	-239.805	-66.1079	54.3379	-225.655	-51.3021	31.9226	-213.921	-19.8037	31.957	-222.493	-73.7628	61.7151	-209.664	-65.1459	39.5612	-199.027	-38.1296	23.7169	-199.813	-78.997	78.1857	-192.084	-77.1297	56.9749	-178.007	-78.535	35.9751	-235.404	-76.9574	115.338	-237.268	-71.5188	143.007	-261.533	-63.8646	123.959	
34	0.283333	-267.34	-17.0954	123.196	-256.07	4.02724	96.1051	-245.614	4.83586	70.7479	-229.569	-5.15077	51.5123	-265.321	-55.4612	61.8363	-252.954	-50.7034	30.117	-238.332	-37.1285	15.2494	-244.213	-63.6976	53.6102	-228.172	-46.9457	31.0157	-216.581	-13.263	33.4586	-224.619	-72.2937	63.9553	-215.844	-61.1082	36.1036	-203.235	-35.162	22.2952	-204.722	-73.2532	82.6914	-194.909	-75.1584	55.6932	-185.065	-73.8873	32.5565	-238.09	-72.5845	115.912	-238.742	-66.4918	147.418	-262.797	-59.3038	124.682	
35	0.291667	-267.544	-12.4679	124.387	-255.167	3.83301	93.7545	-245.512	5.71673	71.1759	-229.033	-2.52742	51.8679	-267.665	-53.3857	59.9636	-258.672	-46.7434	28.324	-241.957	-33.7474	14.1365	-241.787	-62.5847	53.5871	-231.379	-43.7689	30.2408	-219.245	-11.7512	30.7393	-224.912	-70.0561	63.0468	-215.387	-58.7419	34.7385	-206.397	-34.6075	22.5769	-205.064	-73.757	76.8767	-195.318	-73.0663	53.8225	-183.387	-71.1436	34.4921	-236.221	-72.5769	113.912	-237.779	-66.6095	145.257	-262.79	-54.6195	125.86	
36	0.3	-268.277	-13.0195	123.647	-254.791	2.93581	94.7117	-245.874	6.77556	71.551	-231.201	2.22662	47.2707	-263.616	-53.6671	59.6973	-256.778	-50.1734	32.856	-239.453	-33.5569	14.2761	-244.156	-61.1263	55.3498	-233.816	-45.147	30.2448	-216.213	-13.8442	31.8905	-225.651	-68.7552	64.3778	-216.454	-60.045	37.8192	-207.052	-29.586	21.2539	-206.765	-71.2622	75.2449	-197.458	-71.1153	54.0762	-182.637	-69.8419	30.9142	-233.501	-71.2021	116.613	-238.13	-66.714	143.41	-262.56	-55.2404	124.893	
37	0.308333	-267.478	-15.8449	122.259	-255.559	2.09822	94.2612	-247.226	7.93317	72.8983	-233.6	4.10404	48.5433	-264.289	-53.8294	55.5956	-257.345	-47.3724	29.4179	-243.442	-28.8288	12.4456	-243.068	-60.0598	56.5885	-231.456	-42.825	30.8806	-216.757	-11.8905	33.8558	-224.72	-68.5489	63.3655	-217.387	-55.4084	33.8589	-203.361	-27.8658	21.2956	-206.366	-70.8576	80.5553	-194.914	-71.2416	56.2814	-188.024	-70.5285	33.2608	-238.527	-69.3412	116.882	-235.947	-68.922	144.438	-267.227	-55.7908	122.34	
38	0.316667	-267.339	-14.8454	123.785	-256.996	8.37596	97.1325	-248.369	12.703	71.1606	-233.288	6.03106	53.4714	-268.185	-49.4658	60.4115	-262.542	-42.1643	29.2144	-242.871	-26.4917	13.258	-249.549	-55.0804	55.2756	-233.236	-38.2182	30.7978	-217.439	-5.0239	35.7074	-229.839	-64.4089	60.6042	-218.355	-54.0976	34.9443	-207.156	-28.287	22.0161	-209.161	-68.3984	76.4557	-196.148	-69.9888	56.0717	-184.402	-67.7467	28.7604	-236.42	-67.682	116.191	-241.887	-64.2584	142.976	-269.36	-53.7483	123.83	
39	0.325	-267.026	-10.4919	123.783	-255.204	9.60757	100.471	-247.302	17.189	70.2294	-231.761	10.081	47.6806	-268.379	-43.2968	54.448	-263.287	-37.4984	30.6957	-244.879	-17.7922	11.4302	-246.077	-50.6584	50.9705	-232.928	-30.2147	29.6848	-218.067	-2.79275	34.0293	-231.955	-58.705	59.6211	-218.125	-47.5445	33.5073	-204.817	-20.7004	20.5825	-209.625	-65.2552	73.1386	-198.455	-64.8872	51.8212	-187.189	-59.6944	26.9783	-241.877	-64.1242	113.562	-240.193	-61.2254	141.511	-270.268	-47.2513	124.487	
40	0.333333	-269.798	0.761145	121.764	-255.748	17.2048	96.8377	-248.699	24.3395	70.2137	-234.135	18.9431	47.9097	-268.585	-37.2066	54.0569	-262.86	-28.2536	28.7942	-244.052	-13.8706	12.1999	-248.004	-43.8096	51.1121	-235.008	-26.2475	28.958	-222.509	6.65257	32.8763	-230.374	-54.3504	58.8096	-220.236	-43.6656	32.6674	-208.79	-14.2075	19.5798	-213.877	-58.8488	74.6598	-199.434	-60.2967	52.4673	-191.769	-57.2206	26.6834	-238.85	-60.0685	109.898	-241.888	-55.3247	141.098	-268.71	-43.2074	123.426	
41	0.341667	-270.702	1.17002	123.094	-255.128	18.5776	101.215	-247.53	26.767	69.0437	-233.35	17.5889	49.6392	-270.731	-33.8484	57.3531	-263.819	-28.7298	30.9546	-244.085	-13.3965	13.9182	-248.056	-42.5378	50.4525	-235.694	-23.7582	28.5252	-217.56	6.39495	34.1501	-230.046	-53.6804	59.8717	-222.431	-40.9706	33.3536	-211.396	-13.9207	20.7089	-210.169	-59.5301	74.3607	-200.213	-58.4666	51.021	-187.867	-54.5973	25.0639	-240.92	-57.2127	111.505	-244.124	-52.3666	140.727	-270.411	-39.7727	124.863	
42	0.35	-267.503	-2.12272	121.31	-256.776	19.6863	98.9683	-245.22	20.8643	70.8448	-232.54	16.1362	52.9927	-272.923	-35.2954	57.9498	-262.144	-28.0654	28.4839	-244.071	-9.8018	11.4404	-247.898	-42.7118	49.6367	-233.449	-24.9026	29.0441	-221.087	9.7435	34.2462	-229.672	-53.6956	60.1385	-216.608	-41.6946	32.9168	-209.705	-14.7911	21.0576	-209.73	-59.7326	74.578	-200.629	-59.2739	50.8321	-190.81	-56.1423	26.8329	-240.989	-58.1405	114.222	-241.715	-54.3036	142.456	-268.489	-42.0141	125.164	
43	0.358333	-267.791	-2.52557	123.711	-253.798	14.4444	99.2735	-245.776	21.1922	74.8407	-229.47	14.1159	50.5902	-266.547	-39.5621	57.8328	-263.937	-32.384	31.1779	-245.054	-16.9095	13.5128	-245.639	-46.0431	55.1152	-234.584	-25.3101	28.5471	-219.13	3.3998	33.7701	-229.309	-54.8393	58.1616	-218.185	-45.5429	35.4294	-205.052	-17.6566	21.8486	-211.555	-60.7199	73.4218	-199.528	-61.3973	53.4355	-190.22	-59.9614	31.1629	-240.72	-59.3268	112.375	-237.935	-57.4984	144.051	-268.585	-42.4089	126.641	
44	0.366667	-264.587	-5.68622	126.459	-253.929	16.9944	99.0797	-244.941	20.9759	69.0238	-229.372	10.462	53.2113	-268.394	-38.1853	59.9126	-261.562	-34.6405	32.3813	-241.872	-16.4978	13.2573	-248.115	-45.614	56.3824	-233.321	-31.075	31.3483	-218.94	3.04444	32.8998	-227.152	-56.0921	58.4689	-217.156	-46.8625	36.2378	-203.823	-18.8421	22.2783	-210.854	-60.0329	78.7557	-197.347	-62.1488	52.596	-190.313	-59.6592	27.6127	-238.891	-59.0498	115.163	-241.94	-55.2617	143.12	-269.46	-43.9044	123.477	
45	0.375	-264.858	-4.37324	123.976	-251.861	15.0861	97.0848	-242.593	19.0059	74.6253	-230.313	14.0182	54.8471	-268.323	-38.3399	58.7392	-261.046	-31.7824	30.1557	-243.284	-15.631	13.0775	-246.49	-45.1724	52.756	-228.886	-27.4437	30.5551	-217.053	2.27722	32.6819	-230.97	-54.9878	60.4842	-217.954	-46.4072	36.7237	-203.985	-16.9404	21.7454	-208.714	-62.0997	74.9742	-196.145	-62.6187	55.1011	-188.745	-61.7021	31.9419	-235.366	-61.0508	116.013	-242.173	-56.971	145.318	-267.156	-43.7474	125.62	
